<svg enable-background="new 0 0 2500 2437.5" viewBox="0 0 2500 2437.5" xmlns="http://www.w3.org/2000/svg"><path d="m2057.3 2437.5h-1614.6c-244.8 0-442.7-197.9-442.7-442.7v-1552.1c0-244.8 197.9-442.7 442.7-442.7h1614.6c244.8 0 442.7 197.9 442.7 442.7v1552.1c0 244.8-197.9 442.7-442.7 442.7z" fill="#ff26be"/><path d="m2017.7 2333.3h-1535.4c-208.3 0-378.1-169.8-378.1-378.1v-1472.9c0-208.3 169.8-378.1 378.1-378.1h1534.4c209.4 0 378.1 169.8 378.1 378.1v1471.9c1 209.3-168.8 379.1-377.1 379.1z" fill="#2e001f"/><path d="m988.5 1140.6 291.7 560.4c5.2 8.3 2.1 16.7-6.3 16.7h-181.3c-11.5 0-16.7-3.1-21.9-13.5-66.7-137.5-134.4-275-204.2-422.9h-2.1c-62.5 139.6-131.3 286.5-197.9 424-5.2 8.3-10.4 11.5-18.8 11.5h-171.7c-10.4 0-11.5-8.3-6.2-14.6l285.4-543.8-276-550c-6.3-8.3 0-14.6 6.2-14.6h179.2c10.4 0 14.6 2.1 18.7 11.5 65.6 137.5 132.3 279.2 194.8 417.7h2.1c60.4-137.5 127.1-280.2 191.7-416.7 5.2-8.3 8.3-13.5 18.8-13.5h167.7c8.3 0 11.5 6.3 6.3 14.6zm342.8 169.8c0-242.7 161.5-432.3 417.7-432.3 21.9 0 33.3 0 54.2 2.1v-276c0-6.3 5.2-10.4 10.4-10.4h164.6c8.3 0 10.4 3.1 10.4 8.3v956.3c0 28.1 0 63.5 5.2 102.1 0 6.3-2.1 8.3-8.3 11.5-87.5 41.7-179.2 60.4-266.7 60.4-226.1.9-387.6-138.6-387.5-422zm471.8-266.6c-14.6-6.3-35.4-10.4-60.4-10.4-131.3 0-222.9 101-222.9 268.8 0 191.7 93.8 268.8 211.5 268.8 25 0 52.1-3.1 71.9-11.5v-515.7z" fill="#ffd9f2"/></svg>