<svg height="1968" viewBox="1.578 2.186 1087.411 855.842" width="2500" xmlns="http://www.w3.org/2000/svg"><path d="m318.839 547.785-99.62 42.792 92.26 39.455 106.98-39.455zm-149.773 53.49-3.338 192.564 145.75 64.188v-199.923zm299.545 0-131.715 50.152v188.543l131.715-53.49zm157.132-599.089-100.305 42.793 92.944 39.454 106.98-39.454-99.619-42.793zm-139.074 56.85v192.564l124.354 36.116 4.022-175.191zm278.149 10.697-117.678 50.153v189.227l117.679-53.49v-185.89zm-610.13 203.477-99.62 42.792 92.26 39.455 106.98-39.455zm-149.772 53.49-3.338 192.565 145.75 64.188v-199.925zm299.545 0-131.714 50.152v188.542l131.714-53.49zm171.168-60.594-99.62 42.792 92.26 39.455 106.98-39.455zm-149.773 53.491-3.338 192.564 145.75 64.188v-199.903zm299.545 0-131.714 50.152v188.542l131.714-53.49zm313.816-317.411-99.619 42.792 92.26 39.454 106.979-39.454zm-149.773 53.49-3.337 192.564 145.75 64.188v-199.903zm299.545 0-131.714 50.152v188.542l131.714-53.49z" fill="#f7a80d"/></svg>