<svg height="2500" preserveAspectRatio="xMidYMid" viewBox="0 0 256 351" width="1823" xmlns="http://www.w3.org/2000/svg" xmlns:xlink="http://www.w3.org/1999/xlink"><defs><path id="a" d="m1.253 280.732 1.605-3.131 99.353-188.518-44.15-83.475c-3.669-6.891-12.987-5.134-14.191 2.58z"/><filter id="b" height="200%" width="200%" x="-50%" y="-50%"><feGaussianBlur in="SourceAlpha" result="shadowBlurInner1" stdDeviation="17.5"/><feOffset in="shadowBlurInner1" result="shadowOffsetInner1"/><feComposite in="shadowOffsetInner1" in2="SourceAlpha" k2="-1" k3="1" operator="arithmetic" result="shadowInnerInner1"/><feColorMatrix in="shadowInnerInner1" values="0 0 0 0 0 0 0 0 0 0 0 0 0 0 0 0 0 0 0.06 0"/></filter><path id="c" d="m134.417 148.974 32.039-32.812-32.039-61.007c-3.042-5.791-10.433-6.398-13.443-.59l-17.705 34.109-.53 1.744z"/><filter id="d" height="200%" width="200%" x="-50%" y="-50%"><feGaussianBlur in="SourceAlpha" result="shadowBlurInner1" stdDeviation="3.5"/><feOffset dx="1" dy="-9" in="shadowBlurInner1" result="shadowOffsetInner1"/><feComposite in="shadowOffsetInner1" in2="SourceAlpha" k2="-1" k3="1" operator="arithmetic" result="shadowInnerInner1"/><feColorMatrix in="shadowInnerInner1" values="0 0 0 0 0 0 0 0 0 0 0 0 0 0 0 0 0 0 0.09 0"/></filter></defs><path d="m0 282.998 2.123-2.972 100.404-190.514.212-2.017-44.259-83.137c-3.71-6.964-14.15-5.203-15.366 2.593z" fill="#ffc24a"/><use fill="#ffa712" fill-rule="evenodd" xlink:href="#a"/><use filter="url(#b)" xlink:href="#a"/><path d="m135.005 150.38 32.955-33.75-32.965-62.93c-3.129-5.957-11.866-5.975-14.962 0l-17.613 33.587v2.86l32.584 60.233z" fill="#f4bd62"/><use fill="#ffa50e" fill-rule="evenodd" xlink:href="#c"/><use filter="url(#d)" xlink:href="#c"/><path d="m0 282.998.962-.968 3.496-1.42 128.477-128 1.628-4.431-32.05-61.074z" fill="#f6820c"/><path d="m139.121 347.551 116.275-64.847-33.204-204.495c-1.039-6.398-8.888-8.927-13.468-4.34l-208.724 209.129 115.608 64.548a24.126 24.126 0 0 0 23.513.005" fill="#fde068"/><path d="m254.354 282.16-32.952-202.942c-1.03-6.35-7.558-8.977-12.103-4.424l-208.009 207.806 114.339 63.908a23.943 23.943 0 0 0 23.334.006l115.392-64.355z" fill="#fcca3f"/><path d="m139.12 345.64a24.126 24.126 0 0 1 -23.512-.005l-114.677-63.62-.93.983 115.607 64.548a24.126 24.126 0 0 0 23.513.005l116.275-64.847-.285-1.752-115.99 64.689z" fill="#eeab37"/></svg>