<svg fill="none" height="48" viewBox="0 0 48 48" width="48" xmlns="http://www.w3.org/2000/svg" xmlns:xlink="http://www.w3.org/1999/xlink"><linearGradient id="a"><stop offset=".18" stop-color="#0052cc"/><stop offset="1" stop-color="#2684ff"/></linearGradient><linearGradient id="b" gradientUnits="userSpaceOnUse" x1="27.443" x2="22.57" xlink:href="#a" y1="15.326" y2="20.411"/><linearGradient id="c" gradientUnits="userSpaceOnUse" x1="376.829" x2="167.455" xlink:href="#a" y1="349.939" y2="557.146"/><path d="m0 24c0-13.2548 10.7452-24 24-24s24 10.7452 24 24-10.7452 24-24 24-24-10.7452-24-24z" fill="#fff"/><path d="m34.9367 12h-11.5267c0 1.38.5482 2.7035 1.524 3.6793s2.2993 1.524 3.6793 1.524h2.1234v2.05c.0018 2.8712 2.3289 5.1982 5.2 5.2v-11.4533c0-.5523-.4477-1-1-1z" fill="#2684ff"/><path d="m29.2333 17.7433h-11.5266c.0018 2.8711 2.3288 5.1981 5.2 5.2h2.1233v2.0567c.0037 2.8711 2.3322 5.1966 5.2033 5.1966v-11.4533c0-.5523-.4477-1-1-1z" fill="url(#b)"/><path d="m23.5267 23.4833h-11.5267c0 2.8737 2.3296 5.2033 5.2033 5.2033h2.13v2.05c.0019 2.8685 2.3249 5.1945 5.1934 5.2v-11.4533c0-.5523-.4477-1-1-1z" fill="url(#c)"/></svg>