<svg height="120" viewBox="0 0 120 120" width="120" xmlns="http://www.w3.org/2000/svg" xmlns:xlink="http://www.w3.org/1999/xlink"><defs><linearGradient id="a" x1="50%" x2="50%" y1="0%" y2="100%"><stop offset="0" stop-color="#91fc8a"/><stop offset="1" stop-color="#00dd35"/></linearGradient><rect id="b" height="120" rx="28" width="120"/><mask id="c" fill="#fff"><use fill="#fff" fill-rule="evenodd" xlink:href="#b"/></mask></defs><g fill="none" fill-rule="evenodd"><use fill="url(#a)" xlink:href="#b"/><path d="m56 47.5v13h-10c-6.09 0-9.5 1.5-10.5 9.5 0 2-.5 5-3.5 6l-16 3c-5 .5-6.453-.504-7.5-3-6.495-15.489 9.5-28 47.5-28.5zm0 0c38 .5 53.995 13.011 47.5 28.5-1.047 2.496-2.5 3.5-7.5 3l-16-3c-3-1-3.5-4-3.5-6-1-8-4.41-9.5-10.5-9.5h-10z" fill="#fff" mask="url(#c)" transform="matrix(-.70710678 -.70710678 .70710678 -.70710678 50.829375 147.678952)"/></g></svg>