<svg height="48" viewBox="0 0 48 48" width="48" xmlns="http://www.w3.org/2000/svg"><g transform="translate(-523 -1460.362)"><path d="m549 1462.3622c-.55401 0-1 .446-1 1v1c0 .554.44599 1 1 1h10.00391l.0156 6.4844c.002.8253.67075 1.4938 1.49609 1.4961l6.48437.017v28.502c0 .8569-.64305 1.5-1.5 1.5h-23c-.85695 0-1.5-.6431-1.5-1.5v-1.5c0-.554-.44599-1-1-1h-1c-.55401 0-1 .446-1 1v1.5c0 2.4671 2.03295 4.5 4.5 4.5h23c2.46705 0 4.5-2.0329 4.5-4.5v-30.4863c-.00008-.3978-.15815-.7793-.43945-1.0606l-7.51368-7.5136c-.28126-.2814-.66274-.4394-1.06054-.4395zm-11 21c0 .554.44599 1 1 1h1c.55401 0 1-.446 1-1v-10c0-.554-.44599-1-1-1h-1c-.55401 0-1 .446-1 1z" fill="#242730"/><path d="m542.5 458c-2.46705 0-4.5 2.0329-4.5 4.5v2.5c0 .554.44599 1 1 1h1c.55401 0 1-.446 1-1v-2.5c0-.8569.64305-1.5 1.5-1.5h2.5c.55401 0 1-.446 1-1v-1c0-.554-.44599-1-1-1zm-15.5 24c-1.10801 0-2 .892-2 2v7c0 1.108.89199 2 2 2h25c1.10801 0 2-.892 2-2v-7c0-1.108-.89199-2-2-2zm6.55078 1.9082c.42969 0 .82162.086 1.22266.25782.10504-.2288.21874-.25782.47656-.25782.30558 0 .38258.0969.39258.49805l.0176.89648v.0488c0 .3533-.11372.4961-.47657.4961-.38195 0-.42056-.21026-.53515-.43946-.19097-.3724-.52582-.58203-.97461-.58203-.58247 0-.93555.3056-.93555.6875 0 .487.53558.53388 1.5.73438 1.15539.2387 1.69922.75577 1.69922 1.70117 0 1.1458-.8025 1.78516-2.25391 1.78516-.47744 0-.91536-.049-1.40234-.23047-.10504.1815-.22938.23047-.43945.23047-.38195 0-.52516-.11436-.53516-.50586l-.0293-1.09961v-.0469c0-.401.1339-.55469.52539-.55469.36285 0 .41017.26737.58204.60157.24827.487.6686.71679 1.29882.71679.56337 0 .90821-.23853.90821-.67773 0-.6016-.53558-.60201-1.58594-.87891s-1.60352-.63087-1.60352-1.57617c0-1.06.87846-1.80469 2.14844-1.80469zm5.81055 0c1.53734 0 2.62695 1.19235 2.62695 2.87305 0 1.6901-1.10784 2.89453-2.58789 2.89453-.0478 0-.15408.00044-.31641-.01l-.35351.36132c.25781-.086.51563-.13281.77344-.13281.63977 0 1.00412.21875 1.27148.21875.28646 0 .52387-.19922.71484-.19922.22917 0 .40235.1994.40235.4668 0 .3437-.45964.64062-1.08985.64062-.60157 0-1.03992-.29687-1.50781-.29687-.58247 0-.98285.36328-1.25976.36328-.26737 0-.47852-.20092-.47852-.44922 0-.191.14257-.3908.40039-.6582l.4668-.47656c-1.02079-.3729-1.69727-1.42476-1.69727-2.72266 0-1.6807 1.07833-2.87305 2.63477-2.87305zm3.64453.15235h1.99414c.38194 0 .57422.14322.57422.51562 0 .3819-.19228.51563-.57422.51563h-.41016v3.47461h2.11914v-.83008c0-.4011.13542-.5918.50782-.5918.38195 0 .50586.2003.50586.5918v1.43164c0 .3339-.0968.41992-.48828.41992h-4.22852c-.38195 0-.56445-.13362-.56445-.51562 0-.3819.1825-.50586.56445-.50586h.41016v-3.47461h-.41016c-.38195 0-.56445-.13373-.56445-.51563 0-.3724.1825-.51562.56445-.51562zm-3.64453.92578c-.78299 0-1.28906.64998-1.28906 1.83398 0 1.1841.52516 1.8418 1.28906 1.8418.77345 0 1.28906-.6482 1.28906-1.8418s-.51561-1.83398-1.28906-1.83398z" fill="#11c111" transform="translate(0 1004.362)"/></g></svg>